<?xml version="1.0" encoding="UTF-8"?>
<svg xmlns:rdf="http://www.w3.org/1999/02/22-rdf-syntax-ns#" xmlns="http://www.w3.org/2000/svg" xmlns:cc="http://creativecommons.org/ns#" xmlns:xlink="http://www.w3.org/1999/xlink" xmlns:dc="http://purl.org/dc/elements/1.1/" xmlns:svg="http://www.w3.org/2000/svg" xmlns:inkscape="http://www.inkscape.org/namespaces/inkscape" xmlns:sodipodi="http://sodipodi.sourceforge.net/DTD/sodipodi-0.dtd" xmlns:ns1="http://sozi.baierouge.fr" id="svg2327" viewBox="0 0 48 48" version="1.1">
  <defs id="defs3">
    <linearGradient id="linearGradient2245">
      <stop id="stop2247" stop-color="#dde1d9" offset="0"/>
      <stop id="stop2249" stop-color="#cacdc6" offset="1"/>
    </linearGradient>
    <linearGradient id="linearGradient2251" x1="8.6116" xlink:href="#linearGradient2245" gradientUnits="userSpaceOnUse" y1="7.2294" gradientTransform="matrix(1.1299 0 0 .88506 -1.625 -1.3044)" x2="34.784" y2="33.34"/>
    <linearGradient id="linearGradient2421" x1="17.698" gradientUnits="userSpaceOnUse" y1="13.005" gradientTransform="matrix(1.1081 0 0 .90247 1 1)" x2="34.975" y2="55.201">
      <stop id="stop2417" stop-color="#fff" offset="0"/>
      <stop id="stop2419" stop-color="#fff" stop-opacity="0" offset="1"/>
    </linearGradient>
    <radialGradient id="radialGradient2460" gradientUnits="userSpaceOnUse" cy="67.502" cx="12.576" gradientTransform="scale(1.9258 .51926)" r="8.7663">
      <stop id="stop2456" offset="0"/>
      <stop id="stop2458" stop-opacity="0" offset="1"/>
    </radialGradient>
    <linearGradient id="linearGradient2673" x1="11.492" gradientUnits="userSpaceOnUse" x2="17.199" gradientTransform="matrix(1.239 0 0 .89596 .59055 -1.3315)" y1="1.6538" y2="26.729">
      <stop id="stop2669" stop-color="#fff" offset="0"/>
      <stop id="stop2671" stop-color="#fcfcff" stop-opacity="0" offset="1"/>
    </linearGradient>
    <linearGradient id="linearGradient2681" x1="19.15" gradientUnits="userSpaceOnUse" x2="16.316" gradientTransform="matrix(1.1741 0 0 .94543 .72182 -1.3315)" y1="32.622" y2="8.8666">
      <stop id="stop2677" stop-color="#5b975b" offset="0"/>
      <stop id="stop2679" stop-color="#1b431b" offset="1"/>
    </linearGradient>
    <linearGradient id="linearGradient2689" x1="3.707" gradientUnits="userSpaceOnUse" x2="3.707" gradientTransform="matrix(5.7052 0 0 .17528 1 -.67937)" y1="171.29" y2="162.45">
      <stop id="stop2685" offset="0"/>
      <stop id="stop2687" stop-opacity="0" offset="1"/>
    </linearGradient>
    <linearGradient id="linearGradient2707" x1="12.207" gradientUnits="userSpaceOnUse" x2="12.128" gradientTransform="scale(1.8163 .55056)" y1="53.535" y2="64.893">
      <stop id="stop2703" stop-color="#585956" offset="0"/>
      <stop id="stop2705" stop-color="#bbbeb8" offset="1"/>
    </linearGradient>
    <linearGradient id="linearGradient2717" x1="34.301" gradientUnits="userSpaceOnUse" x2="35.521" y1="3.9384" y2="3.8451">
      <stop id="stop2713" stop-color="#909090" offset="0"/>
      <stop id="stop2715" stop-color="#bebebe" stop-opacity="0" offset="1"/>
    </linearGradient>
    <linearGradient id="linearGradient2741" x1="13.629" gradientUnits="userSpaceOnUse" x2="8.6485" gradientTransform="matrix(2.1436 0 0 .46650 1 -.50883)" y1="101.28" y2="74.098">
      <stop id="stop2637" stop-color="#f9fff5" offset="0"/>
      <stop id="stop2639" stop-color="#f9fff5" stop-opacity="0" offset="1"/>
    </linearGradient>
    <linearGradient id="linearGradient2758" x1="8.1134" gradientUnits="userSpaceOnUse" x2="8.1134" gradientTransform="scale(2.3099 .43293)" y1="88.509" y2="100.2">
      <stop id="stop2754" stop-color="#9d9d9d" offset="0"/>
      <stop id="stop2756" stop-color="#b9b9b9" offset="1"/>
    </linearGradient>
    <linearGradient id="linearGradient2979" x1="10.391" gradientUnits="userSpaceOnUse" x2="32.537" gradientTransform="scale(1.1044 .90547)" y1="5.3818" y2="31.246">
      <stop id="stop2255" stop-color="#8f8f8f" offset="0"/>
      <stop id="stop2257" stop-color="#494949" offset="1"/>
    </linearGradient>
    <linearGradient id="linearGradient2981" x1="18.317" xlink:href="#linearGradient2245" gradientUnits="userSpaceOnUse" x2="18.177" gradientTransform="scale(1.1299 .88506)" y1="48.643" y2="52.536"/>
    <linearGradient id="linearGradient2991" x1="-23.886" gradientUnits="userSpaceOnUse" x2="-23.886" gradientTransform="scale(1.4929 .66985)" y1="49.953" y2="44.879">
      <stop id="stop2987" stop-color="#d8dfd6" offset="0"/>
      <stop id="stop2989" stop-color="#d8dfd6" stop-opacity="0" offset="1"/>
    </linearGradient>
  </defs>
  <g id="layer1">
    <path id="path2452" style="color:#000000" d="m41.101 35.051a16.882 4.552 0 1 1 -33.765 0 16.882 4.552 0 1 1 33.765 0z" fill-rule="evenodd" transform="matrix(1 0 0 1.3689 -1.9786 -13.617)" fill="url(#radialGradient2460)"/>
    <path id="path2407" style="color:#000000" d="m-26.264 29.716a9.3944 3.9396 0 1 1 -18.789 0 9.3944 3.9396 0 1 1 18.789 0z" fill-rule="evenodd" transform="translate(57.533 3.2034)" stroke="#4b4d4a" fill="#adb0aa"/>
    <path id="path1825" style="color:#000000" d="m-26.264 29.716a9.3944 3.9396 0 1 1 -18.789 0 9.3944 3.9396 0 1 1 18.789 0z" transform="matrix(.94027 0 0 .94027 55.404 4.2712)" stroke="#7b7f7a" fill="none"/>
    <path id="path2983" style="color:#000000" d="m-26.264 29.716a9.3944 3.9396 0 1 1 -18.789 0 9.3944 3.9396 0 1 1 18.789 0z" transform="matrix(.94027 0 0 .94027 55.404 3.5212)" stroke="url(#linearGradient2991)" stroke-width=".68065" fill="none"/>
    <path id="path2411" stroke-linejoin="round" d="m25.688 28.766l-0.063 1s4.324 3.599 9 4.203c2.338 0.301 4.754 0.702 6.75 1.187s3.588 1.12 4.125 1.656c0.31 0.311 0.451 0.574 0.5 0.782 0.049 0.207 0.038 0.355-0.094 0.562-0.264 0.416-1.08 0.968-2.468 1.406-2.778 0.878-7.721 1.438-14.563 1.438v1c6.896 0 11.864-0.528 14.844-1.469 1.49-0.47 2.525-1.015 3.031-1.812 0.253-0.399 0.357-0.889 0.25-1.344s-0.385-0.885-0.781-1.281c-0.878-0.878-2.537-1.407-4.594-1.906-2.057-0.5-4.516-0.915-6.875-1.219-4.719-0.609-9.062-4.203-9.062-4.203z" fill-rule="evenodd" stroke="#979797" stroke-width=".4" fill="#d0d0d0"/>
    <path id="path2462" style="color:#000000" d="m41.101 35.051a16.882 4.552 0 1 1 -33.765 0 16.882 4.552 0 1 1 33.765 0z" fill-rule="evenodd" transform="matrix(1 0 0 1.3689 -1.9786 -19.021)" fill="url(#radialGradient2460)"/>
    <rect id="rect2699" style="color:#000000" fill-rule="evenodd" height="2.74" width="9.0397" y="30.704" x="17.472" fill="url(#linearGradient2707)"/>
    <path id="rect2404" style="color:#000000" d="m7.0809 1.6956h29.588c0.911 0 1.624 0.5835 1.667 1.4016l1.332 25.578c0.058 1.118-0.901 2.021-2.02 2.021h-31.546c-1.1188 0-2.0781-0.903-2.0199-2.021l1.3321-25.578c0.0402-0.7733 0.5475-1.4014 1.6667-1.4014z" fill-rule="evenodd" stroke="url(#linearGradient2979)" fill="url(#linearGradient2251)"/>
    <path id="path2377" stroke-linejoin="round" d="m8.4105 4.3058l-1.2422 22.045h27.651l-1.335-21.952-25.074-0.0932z" fill-rule="evenodd" stroke="#007900" stroke-width=".5" fill="url(#linearGradient2681)"/>
    <path id="path2393" d="m6.1774 28.736h31.429" stroke-opacity=".24841" stroke="url(#linearGradient2689)" stroke-linecap="round" stroke-width=".99618" fill="none"/>
    <path id="path2397" style="color:#000000" d="m6.9146 2.7063l29.845-0.0378c0.284-0.0003 0.559 0.2373 0.582 0.6526l1.362 24.803c0.058 1.057-0.54 1.786-1.598 1.786h-30.524c-1.0589 0-1.5933-0.729-1.5361-1.786l1.3241-24.494c0.0387-0.7157 0.1664-0.9232 0.5446-0.9237z" stroke-opacity=".70064" stroke="url(#linearGradient2421)" fill="none"/>
    <path id="path2443" opacity=".53143" fill-rule="evenodd" fill="url(#linearGradient2673)" d="m8.7115 4.7464l-0.8025 17.871c11.045-2.401 11.421-10.493 25.154-13.147l-0.161-4.6576-24.19-0.066z"/>
    <path id="path2657" style="color:#000000" d="m41.101 35.051a16.882 4.552 0 1 1 -33.765 0 16.882 4.552 0 1 1 33.765 0z" fill-rule="evenodd" transform="matrix(1.2644 0 0 1.2913 -6.2163 -4.0004)" fill="url(#radialGradient2460)"/>
    <path id="path2409" style="color:#000000" d="m6.4622 36.817h31.003c1.119 0 0.977 0.272 1.092 0.613l2.834 8.425c0.115 0.342 0.027 0.613-1.092 0.613h-36.672c-1.1187 0-1.2066-0.271-1.0917-0.613l2.8347-8.425c0.1148-0.341-0.0271-0.613 1.0922-0.613z" fill-rule="evenodd" stroke="url(#linearGradient2979)" fill="url(#linearGradient2981)"/>
    <path id="path2611" fill-rule="evenodd" fill="#7a7d77" d="m6.3917 38.829l-1.7678 5.127h5.4801l0.53-2.033h14.85l0.549 2.075h6.168l-1.679-5.169h-24.13z"/>
    <path id="path2613" fill-rule="evenodd" fill="#777874" d="m11.076 42.276l-0.442 1.68h14.761l-0.442-1.768-13.877 0.088z"/>
    <path id="path2619" style="color:#000000" fill-rule="evenodd" fill="#777a75" d="m37.593 38.829l1.679 5.038-5.48-0.088-1.503-4.861 5.304-0.089z"/>
    <path id="path2615" style="color:#000000" fill-rule="evenodd" fill="url(#linearGradient2758)" d="m37.593 38.299l1.679 5.038-5.48-0.088-1.503-4.862 5.304-0.088z"/>
    <path id="path2617" fill-rule="evenodd" fill="url(#linearGradient2758)" d="m6.3917 38.21l-1.7678 5.127h5.4801l0.53-2.033h14.85l0.549 2.075h6.168l-1.679-5.169h-24.13z"/>
    <path id="path2621" style="color:#000000" fill-rule="evenodd" fill="url(#linearGradient2758)" d="m11.076 41.746l-0.442 1.679h14.761l-0.442-1.767-13.877 0.088z"/>
    <path id="path2631" stroke-linejoin="round" style="color:#000000" d="m6.1278 37.578h31.826l2.637 8.093h-37.261l2.7978-8.093z" stroke="url(#linearGradient2741)" stroke-width=".5" fill="none"/>
    <path id="path2709" style="color:#000000" d="m35.621 3.9384a0.83969 0.83969 0 1 1 -1.68 0 0.83969 0.83969 0 1 1 1.68 0z" fill-rule="evenodd" transform="matrix(1.3312 0 0 .65845 -10.419 2.8539)" fill="url(#linearGradient2717)"/>
    <path id="path2719" style="color:#000000" d="m35.621 3.9384a0.83969 0.83969 0 1 1 -1.68 0 0.83969 0.83969 0 1 1 1.68 0z" fill-rule="evenodd" transform="matrix(1.3312 0 0 .65845 -10.306 4.9597)" fill="url(#linearGradient2717)"/>
    <path id="path2723" style="color:#000000" d="m35.621 3.9384a0.83969 0.83969 0 1 1 -1.68 0 0.83969 0.83969 0 1 1 1.68 0z" fill-rule="evenodd" transform="matrix(1.3312 0 0 .65845 -10.192 6.9597)" fill="url(#linearGradient2717)"/>
    <path id="path2727" style="color:#000000" d="m35.621 3.9384a0.83969 0.83969 0 1 1 -1.68 0 0.83969 0.83969 0 1 1 1.68 0z" fill-rule="evenodd" transform="matrix(1.3312 0 0 .65845 -10.079 8.9597)" fill="url(#linearGradient2717)"/>
    <path id="path2731" style="color:#000000" d="m35.621 3.9384a0.83969 0.83969 0 1 1 -1.68 0 0.83969 0.83969 0 1 1 1.68 0z" fill-rule="evenodd" transform="matrix(1.3312 0 0 .65845 -9.9649 10.96)" fill="url(#linearGradient2717)"/>
    <path id="text2735" d="m20 27.318h0.282c0.083 0 0.148 0.018 0.192 0.056 0.045 0.037 0.068 0.09 0.068 0.158 0 0.069-0.023 0.123-0.068 0.16-0.044 0.037-0.109 0.056-0.192 0.056h-0.112v0.228h-0.17v-0.658m0.17 0.123v0.184h0.094c0.033 0 0.058-0.008 0.076-0.024s0.027-0.039 0.027-0.069c0-0.029-0.009-0.052-0.027-0.068-0.018-0.015-0.043-0.023-0.076-0.023h-0.094m0.792-0.012c-0.052 0-0.092 0.019-0.12 0.057-0.029 0.038-0.043 0.092-0.043 0.161 0 0.07 0.014 0.123 0.043 0.161 0.028 0.039 0.068 0.058 0.12 0.058s0.092-0.019 0.121-0.058c0.028-0.038 0.043-0.091 0.043-0.161 0-0.069-0.015-0.123-0.043-0.161-0.029-0.038-0.069-0.057-0.121-0.057m0-0.123c0.106 0 0.189 0.03 0.249 0.091 0.06 0.06 0.09 0.144 0.09 0.25 0 0.107-0.03 0.19-0.09 0.251-0.06 0.06-0.143 0.091-0.249 0.091s-0.188-0.031-0.249-0.091c-0.06-0.061-0.09-0.144-0.09-0.251 0-0.106 0.03-0.19 0.09-0.25 0.061-0.061 0.143-0.091 0.249-0.091m0.466 0.012h0.19l0.239 0.451v-0.451h0.161v0.658h-0.189l-0.24-0.452v0.452h-0.161v-0.658m0.663 0h0.186l0.15 0.234 0.15-0.234h0.186l-0.251 0.381v0.277h-0.17v-0.277l-0.251-0.381" fill="#4a4a4a"/>
  </g>
  <metadata>
    <rdf:RDF>
      <cc:Work>
        <dc:format>image/svg+xml</dc:format>
        <dc:type rdf:resource="http://purl.org/dc/dcmitype/StillImage"/>
        <cc:license rdf:resource="http://creativecommons.org/licenses/publicdomain/"/>
        <dc:publisher>
          <cc:Agent rdf:about="http://openclipart.org/">
            <dc:title>Openclipart</dc:title>
          </cc:Agent>
        </dc:publisher>
        <dc:title>tango computer green</dc:title>
        <dc:date>2013-07-12T15:05:39</dc:date>
        <dc:description>"Computer" icon from Tango Project with green screen</dc:description>
        <dc:source>https://openclipart.org/detail/180746/tango-computer-green-by-saparvia-180746</dc:source>
        <dc:creator>
          <cc:Agent>
            <dc:title>saparvia</dc:title>
          </cc:Agent>
        </dc:creator>
        <dc:subject>
          <rdf:Bag>
            <rdf:li>computer</rdf:li>
            <rdf:li>device</rdf:li>
            <rdf:li>green</rdf:li>
            <rdf:li>hardware</rdf:li>
            <rdf:li>icon</rdf:li>
            <rdf:li>tango</rdf:li>
          </rdf:Bag>
        </dc:subject>
      </cc:Work>
      <cc:License rdf:about="http://creativecommons.org/licenses/publicdomain/">
        <cc:permits rdf:resource="http://creativecommons.org/ns#Reproduction"/>
        <cc:permits rdf:resource="http://creativecommons.org/ns#Distribution"/>
        <cc:permits rdf:resource="http://creativecommons.org/ns#DerivativeWorks"/>
      </cc:License>
    </rdf:RDF>
  </metadata>
</svg>