<?xml version="1.0" encoding="UTF-8" standalone="no"?>
<!-- Created with Inkscape (http://www.inkscape.org/) -->

<svg
   xmlns:dc="http://purl.org/dc/elements/1.1/"
   xmlns:cc="http://creativecommons.org/ns#"
   xmlns:rdf="http://www.w3.org/1999/02/22-rdf-syntax-ns#"
   xmlns:svg="http://www.w3.org/2000/svg"
   xmlns="http://www.w3.org/2000/svg"
   xmlns:sodipodi="http://sodipodi.sourceforge.net/DTD/sodipodi-0.dtd"
   xmlns:inkscape="http://www.inkscape.org/namespaces/inkscape"
   id="svg2"
   version="1.1"
   inkscape:version="0.48.2 r9819"
   width="600"
   height="400"
   sodipodi:docname="dolphin-red.svg">
  <metadata
     id="metadata8">
    <rdf:RDF>
      <cc:Work
         rdf:about="">
        <dc:format>image/svg+xml</dc:format>
        <dc:type
           rdf:resource="http://purl.org/dc/dcmitype/StillImage" />
        <dc:title></dc:title>
      </cc:Work>
    </rdf:RDF>
  </metadata>
  <defs
     id="defs6" />
  <sodipodi:namedview
     pagecolor="#ffffff"
     bordercolor="#666666"
     borderopacity="1"
     objecttolerance="10"
     gridtolerance="10"
     guidetolerance="10"
     inkscape:pageopacity="0"
     inkscape:pageshadow="2"
     inkscape:window-width="1497"
     inkscape:window-height="1013"
     id="namedview4"
     showgrid="false"
     borderlayer="true"
     inkscape:zoom="0.37476659"
     inkscape:cx="161.08532"
     inkscape:cy="133.18469"
     inkscape:window-x="4"
     inkscape:window-y="-17"
     inkscape:window-maximized="0"
     inkscape:current-layer="g4102"
     showguides="true"
     inkscape:guide-bbox="true" />
  <g
     id="g3837"
     transform="matrix(2.6299323,0,0,2.4487718,148.13073,51.79633)">
    <g
       id="g3920">
      <g
         id="g3025"
         transform="translate(9.125089,-3.769294)">
        <g
           id="g3836"
           transform="matrix(0.85190871,0,0,0.84130494,9.9720277,10.144367)"
           style="stroke:#ffffff;stroke-width:1.27907801;stroke-miterlimit:4;stroke-opacity:1;stroke-dasharray:none">
          <g
             id="g3926"
             transform="translate(3.5604581,-2.5813714)">
            <g
               id="g3883">
              <g
                 id="g3879"
                 style="stroke:#ffffff;stroke-width:1.39637339;stroke-miterlimit:4;stroke-opacity:1;stroke-dasharray:none">
                <g
                   id="g3973"
                   transform="matrix(0.677132,0,0,0.75202417,12.346755,3.1651265)"
                   style="stroke-width:1.95681155">
                  <g
                     id="g4147"
                     transform="translate(2.2888505,68.358841)">
                    <g
                       id="g4102"
                       style="fill:#3e3e3e;fill-opacity:1;stroke:#2bff00;stroke-width:2.5904448;stroke-miterlimit:4;stroke-opacity:1;stroke-dasharray:none"
                       transform="matrix(1,0,0,1.0144409,0,-4.0027939)">
                      <rect
                         y="-119.98898"
                         x="-174.36888"
                         height="348.69571"
                         width="434.0072"
                         id="rect3881"
                         style="fill:#ffffff;fill-opacity:1;fill-rule:nonzero;stroke:#2bff00;stroke-width:0;stroke-linecap:round;stroke-linejoin:round;stroke-miterlimit:4;stroke-opacity:1;stroke-dasharray:none;stroke-dashoffset:0"
                         ry="0" />
                      <g
                         id="g4017"
                         transform="matrix(0.98275577,0.18062823,-0.18885544,0.98283561,9.4989229,-15.264105)"
                         style="fill:#001f80;fill-opacity:1;stroke:#ffffff;stroke-width:2.59044480000000020;stroke-miterlimit:4;stroke-opacity:1;stroke-dasharray:none">
                        <g
                           id="g4060"
                           style="fill:#001f80;fill-opacity:1;stroke:#ffffff;stroke-width:2.59044480000000020;stroke-miterlimit:4;stroke-opacity:1;stroke-dasharray:none">
                          <path
                             sodipodi:nodetypes="ccc"
                             style="fill:#001f80;fill-opacity:1;stroke:#ffffff;stroke-width:2.59044480000000020;stroke-linecap:butt;stroke-linejoin:miter;stroke-miterlimit:4;stroke-opacity:1;stroke-dasharray:none"
                             d="M -136.85627,320.56344 C 260.38099,427.13432 509.25755,83.482919 209.83459,46.593445 -153.27367,17.581178 -320.99245,248.11926 -136.85627,320.56344 z"
                             id="path3803"
                             inkscape:connector-curvature="0" />
                          <path
                             sodipodi:nodetypes="cccccccccccccc"
                             inkscape:connector-curvature="0"
                             id="path2987"
                             d="m -37.317073,20.536585 c 0,-2.926829 -0.731707,-7.599914 1.829268,-10.526743 5.423672,-14.5248122 26.4313263,-29.788752 50.387313,-32.006632 3.096972,-10.617729 10.57535,-18.253462 24.246833,-19.295893 -2.769235,9.503173 -6.948966,18.109585 -1.463414,21.585366 38.114876,5.923088 53.596646,22.821558 73.170733,51.219512 11.2885,1.191173 13.88017,4.435667 19.7561,13.902439 -13.74593,-2.235535 -19.1087,-10.7089 -24.5122,7.682927 -5.24406,-4.931639 -3.12564,-7.65603 -2.56097,-15.365854 C 77.500115,16.770591 37.521814,14.99939 8.0487805,19.073171 8.2961176,22.925145 12.929914,23.63344 16.097561,25.292683 9.2347342,25.858792 -6.1026953,29.510486 -9.1463415,24.926829 -22.429096,28.182642 -31.980979,38.463415 -44.268293,38.463415 c -0.868827,-7.391926 6.708622,-12.100662 6.95122,-17.92683 z"
                             style="fill:#001f80;fill-opacity:1;stroke:#ffffff;stroke-width:2.59044480000000020;stroke-linecap:butt;stroke-linejoin:miter;stroke-miterlimit:4;stroke-opacity:1;stroke-dasharray:none"
                             transform="translate(1.8068975e-6,-5.053121e-7)" />
                          <path
                             sodipodi:nodetypes="ccc"
                             style="fill:#001f80;fill-opacity:1;stroke:#ffffff;stroke-width:2.59044480000000020;stroke-linecap:butt;stroke-linejoin:miter;stroke-miterlimit:4;stroke-opacity:1;stroke-dasharray:none"
                             d="m -40.243902,38.097561 c 5.484404,-6.849001 11.221017,-13.408612 17.195122,-19.756098 -5.072633,7.270707 -11.14426,13.463202 -17.195122,19.756098 z"
                             id="path2989"
                             inkscape:connector-curvature="0" />
                          <path
                             sodipodi:nodetypes="ccc"
                             style="fill:#001f80;fill-opacity:1;stroke:#ffffff;stroke-width:2.59044480000000020;stroke-linecap:butt;stroke-linejoin:miter;stroke-miterlimit:4;stroke-opacity:1;stroke-dasharray:none"
                             d="M 1.6891807,8.3751977 C 3.069384,15.736191 79.016732,8.7475224 104.73433,37.331305 92.237505,17.759614 13.099659,-10.643546 1.6891807,8.3751977 z"
                             id="path2991"
                             inkscape:connector-curvature="0" />
                          <path
                             style="fill:#001f80;fill-opacity:1;stroke:#ffffff;stroke-width:2.59044480000000020;stroke-linecap:butt;stroke-linejoin:miter;stroke-miterlimit:4;stroke-opacity:1;stroke-dasharray:none"
                             d="m -18.995411,26.822421 c -2.832033,1.364929 -5.632493,3.325661 -7.857026,1.754601 -4.622258,-3.96751 38.063802,-17.961931 7.857026,-1.754601 z"
                             id="path2993"
                             inkscape:connector-curvature="0"
                             sodipodi:nodetypes="ccc" />
                          <path
                             sodipodi:open="true"
                             sodipodi:type="arc"
                             style="fill:#001f80;fill-opacity:1;fill-rule:nonzero;stroke:#ffffff;stroke-width:0.91333454999999997;stroke-linecap:round;stroke-linejoin:round;stroke-miterlimit:4;stroke-opacity:1;stroke-dasharray:none;stroke-dashoffset:0"
                             id="path2995"
                             sodipodi:cx="-23.780487"
                             sodipodi:cy="15.963414"
                             sodipodi:rx="0.43882963"
                             sodipodi:ry="0.24949397"
                             d="m -23.348583,15.919264 c 0.04289,0.135617 -0.115716,0.265323 -0.35425,0.289707 -0.238534,0.02438 -0.466671,-0.06579 -0.509558,-0.201407 -0.04289,-0.135617 0.115716,-0.265323 0.35425,-0.289706 0.231695,-0.02369 0.454985,0.06079 0.506039,0.191448"
                             transform="matrix(1.9506104,0,0,4.1239977,23.889188,-49.550046)"
                             sodipodi:start="6.1052907"
                             sodipodi:end="12.347761" />
                          <path
                             style="fill:#001f80;fill-opacity:1;stroke:#ffffff;stroke-width:2.59044480000000020;stroke-linecap:butt;stroke-linejoin:miter;stroke-miterlimit:4;stroke-opacity:1;stroke-dasharray:none"
                             d="m 21.585366,27.121951 6.219512,8.780488 2.560976,7.682927 5.121951,2.560975 c 0,0 -0.731707,-2.560975 -1.097561,-4.02439 -0.365854,-1.463414 2.560976,-6.219512 -1.829268,-9.146341 -4.390244,-2.92683 -8.048781,-4.390244 -8.048781,-4.390244 z"
                             id="path3765"
                             inkscape:connector-curvature="0" />
                          <path
                             style="fill:#001f80;fill-opacity:1;stroke:#ffffff;stroke-width:2.59044480000000020;stroke-linecap:butt;stroke-linejoin:miter;stroke-miterlimit:4;stroke-opacity:1;stroke-dasharray:none"
                             d="m 31.463415,26.02439 c 1.463414,1.463415 6.585365,7.317073 6.585365,7.317073 L 44.634146,37 38.04878,28.95122 z"
                             id="path3767"
                             inkscape:connector-curvature="0" />
                          <path
                             style="fill:#001f80;fill-opacity:1;stroke:#ffffff;stroke-width:2.59044480000000020;stroke-linecap:butt;stroke-linejoin:miter;stroke-miterlimit:4;stroke-opacity:1;stroke-dasharray:none"
                             d="m 51.585366,27.121951 c 0,0 4.390244,2.926829 4.390244,4.756098 0,1.829268 4.02439,6.585366 4.02439,6.585366 l -1.463415,5.487805 2.560976,5.853658 2.560976,7.682927 1.829268,-4.390244 0.365854,-3.658537 c 0,0 -2.560976,-4.02439 -1.829269,-6.219512 0.731708,-2.195122 3.658537,-1.829268 1.463415,-5.487805 -2.195122,-3.658536 -2.926829,-5.487805 -4.756098,-6.219512 -1.829268,-0.731707 -4.390244,-3.292683 -4.390244,-3.292683 z"
                             id="path3769"
                             inkscape:connector-curvature="0" />
                          <path
                             style="fill:#001f80;fill-opacity:1;stroke:#ffffff;stroke-width:2.59044480000000020;stroke-linecap:butt;stroke-linejoin:miter;stroke-miterlimit:4;stroke-opacity:1;stroke-dasharray:none"
                             d="m 46.829268,34.804878 4.756098,8.780488 c 0,0 4.756097,4.390244 4.02439,2.195122 -0.731707,-2.195122 -3.658536,-7.682927 -3.658536,-7.682927 z"
                             id="path3771"
                             inkscape:connector-curvature="0" />
                          <path
                             style="fill:#001f80;fill-opacity:1;stroke:#ffffff;stroke-width:2.59044480000000020;stroke-linecap:butt;stroke-linejoin:miter;stroke-miterlimit:4;stroke-opacity:1;stroke-dasharray:none"
                             d="M 42.073171,41.756098 45,52 47.926829,49.439024 c 0,0 2.560976,3.658537 4.390244,2.560976 1.829268,-1.097561 -1.829268,-6.585366 -1.829268,-6.585366 l -3.658537,-4.02439 z"
                             id="path3773"
                             inkscape:connector-curvature="0" />
                          <path
                             style="fill:#001f80;fill-opacity:1;stroke:#ffffff;stroke-width:2.59044480000000020;stroke-linecap:butt;stroke-linejoin:miter;stroke-miterlimit:4;stroke-opacity:1;stroke-dasharray:none"
                             d="m 62.195122,23.829268 3.292683,7.682927 4.756097,7.682927 c 0,0 6.95122,4.02439 5.121952,1.463415 C 73.536585,38.097561 68.04878,30.04878 68.04878,30.04878 z"
                             id="path3775"
                             inkscape:connector-curvature="0" />
                          <path
                             style="fill:#001f80;fill-opacity:1;stroke:#ffffff;stroke-width:2.59044480000000020;stroke-linecap:butt;stroke-linejoin:miter;stroke-miterlimit:4;stroke-opacity:1;stroke-dasharray:none"
                             d="m 79.756098,38.829268 c 0.365853,2.560976 4.02439,10.243903 4.02439,10.243903 0,0 -1.097561,10.975609 0.365853,11.341463 1.463415,0.365854 4.024391,-2.560975 4.024391,-2.560975 l 3.658536,-1.829269 -2.926829,4.02439 3.292683,7.682927 4.390244,-4.02439 c 0,0 6.219514,5.853659 6.585364,7.682927 0.36586,1.829268 1.46342,8.780488 2.92683,7.682927 1.46342,-1.097561 5.48781,-2.195122 2.56098,-5.121951 -2.92683,-2.92683 -6.58537,-10.243903 -6.58537,-10.243903 0,0 10.97561,0.365854 7.31707,-2.560976 -3.65853,-2.926829 -7.68292,-5.853658 -10.243899,-6.219512 C 96.585366,54.560976 96.219512,56.390244 94.02439,53.829268 91.829268,51.268293 90,45.780488 90,45.780488 l -1.463415,2.926829 c 0,0 -2.926829,-0.365854 -2.926829,-2.560976 0,-2.195121 -2.926829,-6.585365 -2.926829,-6.585365 z"
                             id="path3777"
                             inkscape:connector-curvature="0" />
                          <path
                             style="fill:#001f80;fill-opacity:1;stroke:#ffffff;stroke-width:2.59044480000000020;stroke-linecap:butt;stroke-linejoin:miter;stroke-miterlimit:4;stroke-opacity:1;stroke-dasharray:none"
                             d="m 83.04878,27.487805 c 0,0 -1.463414,3.658536 -0.365853,3.658536 1.097561,0 0.365853,-3.658536 0.365853,-3.658536 z"
                             id="path3779"
                             inkscape:connector-curvature="0" />
                          <path
                             style="fill:#001f80;fill-opacity:1;stroke:#ffffff;stroke-width:2.59044480000000020;stroke-linecap:butt;stroke-linejoin:miter;stroke-miterlimit:4;stroke-opacity:1;stroke-dasharray:none"
                             d="m 86.707317,35.170732 0.731707,4.02439 3.292683,2.560976 z"
                             id="path3781"
                             inkscape:connector-curvature="0" />
                          <path
                             style="fill:#001f80;fill-opacity:1;stroke:#ffffff;stroke-width:2.59044480000000020;stroke-linecap:butt;stroke-linejoin:miter;stroke-miterlimit:4;stroke-opacity:1;stroke-dasharray:none"
                             d="m 94.390244,43.585366 1.829268,4.02439 z"
                             id="path3783"
                             inkscape:connector-curvature="0" />
                          <path
                             style="fill:#001f80;fill-opacity:1;stroke:#ffffff;stroke-width:2.59044480000000020;stroke-linecap:butt;stroke-linejoin:miter;stroke-miterlimit:4;stroke-opacity:1;stroke-dasharray:none"
                             d="m 109.02439,54.560976 3.29268,5.121951 3.65854,-0.731707 -5.12195,-4.756098 z"
                             id="path3785"
                             inkscape:connector-curvature="0" />
                          <path
                             style="fill:#001f80;fill-opacity:1;stroke:#ffffff;stroke-width:2.59044480000000020;stroke-linecap:butt;stroke-linejoin:miter;stroke-miterlimit:4;stroke-opacity:1;stroke-dasharray:none"
                             d="m 116.34146,50.902439 1.09756,2.560976 3.29269,-0.731708 z"
                             id="path3787"
                             inkscape:connector-curvature="0" />
                          <path
                             style="fill:#001f80;fill-opacity:1;stroke:#ffffff;stroke-width:2.59044480000000020;stroke-linecap:butt;stroke-linejoin:miter;stroke-miterlimit:4;stroke-opacity:1;stroke-dasharray:none"
                             d="m 127.68293,64.804878 3.29268,3.658537 3.29268,-2.195122 z"
                             id="path3789"
                             inkscape:connector-curvature="0" />
                          <path
                             style="fill:#001f80;fill-opacity:1;stroke:#ffffff;stroke-width:2.59044480000000020;stroke-linecap:butt;stroke-linejoin:miter;stroke-miterlimit:4;stroke-opacity:1;stroke-dasharray:none"
                             d="m 111.21951,69.926829 1.82927,4.756098 2.92683,-1.829268 z"
                             id="path3791"
                             inkscape:connector-curvature="0" />
                          <path
                             style="fill:#001f80;fill-opacity:1;stroke:#ffffff;stroke-width:2.59044480000000020;stroke-linecap:butt;stroke-linejoin:miter;stroke-miterlimit:4;stroke-opacity:1;stroke-dasharray:none"
                             d="m 123.29268,69.560976 c 0,0 0,4.390244 2.19512,4.02439 2.19513,-0.365854 -2.19512,-4.02439 -2.19512,-4.02439 z"
                             id="path3793"
                             inkscape:connector-curvature="0" />
                          <path
                             style="fill:#001f80;fill-opacity:1;stroke:#ffffff;stroke-width:2.59044480000000020;stroke-linecap:butt;stroke-linejoin:miter;stroke-miterlimit:4;stroke-opacity:1;stroke-dasharray:none"
                             d="M 68.780488,55.292683 75,62.243902 75.731707,58.585366 z"
                             id="path3795"
                             inkscape:connector-curvature="0" />
                          <path
                             style="fill:#001f80;fill-opacity:1;stroke:#ffffff;stroke-width:2.59044480000000020;stroke-linecap:butt;stroke-linejoin:miter;stroke-miterlimit:4;stroke-opacity:1;stroke-dasharray:none"
                             d="M 73.536585,47.97561 75,53.463415 77.560976,51.634146 z"
                             id="path3797"
                             inkscape:connector-curvature="0" />
                          <path
                             style="fill:#001f80;fill-opacity:1;stroke:#ffffff;stroke-width:2.59044480000000020;stroke-linecap:butt;stroke-linejoin:miter;stroke-miterlimit:4;stroke-opacity:1;stroke-dasharray:none"
                             d="m 80.121951,62.609756 1.097561,3.658537 2.195122,-3.292683 z"
                             id="path3799"
                             inkscape:connector-curvature="0" />
                          <path
                             style="fill:#001f80;fill-opacity:1;stroke:#ffffff;stroke-width:2.59044480000000020;stroke-linecap:butt;stroke-linejoin:miter;stroke-miterlimit:4;stroke-opacity:1;stroke-dasharray:none"
                             d="m 73.170732,68.829268 c 0,0 1.829268,6.219512 3.292683,6.219512 1.463414,0 2.560975,-3.658536 2.560975,-3.658536 l -3.658536,-1.463415 z"
                             id="path3801"
                             inkscape:connector-curvature="0" />
                          <path
                             sodipodi:nodetypes="cccsscssccccccscsccccsccssscc"
                             style="fill:#001f80;fill-opacity:1;stroke:#ffffff;stroke-width:2.59044480000000020;stroke-linecap:butt;stroke-linejoin:miter;stroke-miterlimit:4;stroke-opacity:1;stroke-dasharray:none"
                             d="m 74.743411,85.195171 c 1.829269,-0.731707 2.817565,3.756049 2.817565,3.756049 l 2.926829,-4.390244 c 0,0 2.195122,1.463414 3.658536,2.926829 1.463415,1.463415 4.756098,4.390244 5.121952,2.560975 C 89.634146,88.219512 88.902439,82 88.902439,82 c 0,0 1.463415,1.463415 2.926829,4.756098 1.463415,3.292682 3.292683,-0.365854 4.756098,-0.731708 1.463414,-0.365853 4.756094,-1.829268 4.756094,-1.829268 l 2.56098,2.195122 0.73171,-5.121951 2.56097,0.365853 2.92683,6.219513 1.09756,-4.390244 c 0,0 1.82927,0.365853 2.19512,2.195122 0.36586,1.829268 2.92683,-2.560976 2.92683,-2.560976 0,0 0.73171,1.829268 2.19513,2.926829 1.46341,1.097561 5.4878,-2.560975 5.4878,-2.560975 l 1.82927,3.658536 4.39024,-4.02439 2.56098,5.487805 c 0,0 1.82927,-7.682927 3.29268,-7.682927 1.46342,0 2.56098,8.048781 2.56098,8.048781 l -10.97561,3.658536 c 0,0 -14.63415,-1.463415 -21.58537,-0.365854 -6.951219,1.097561 -16.463414,1.097561 -18.292682,0.731708 -1.829268,-0.365854 -11.708135,-0.679155 -13.170732,-0.731708 -8.566339,-0.3078 -3.554945,-1.602056 -2.195122,-3.658536 z"
                             id="path3805"
                             inkscape:connector-curvature="0" />
                          <path
                             sodipodi:nodetypes="ccc"
                             style="fill:#001f80;fill-opacity:1;stroke:#ffffff;stroke-width:2.59044480000000020;stroke-linecap:butt;stroke-linejoin:miter;stroke-miterlimit:4;stroke-opacity:1;stroke-dasharray:none"
                             d="m 33.658537,83.463415 c 3.715893,-3.653665 11.182872,-0.527139 19.02439,1.463414 -8.260221,3.93377 -9.552755,2.340198 -19.02439,-1.463414 z"
                             id="path3807"
                             inkscape:connector-curvature="0" />
                          <path
                             sodipodi:nodetypes="ccc"
                             style="fill:#001f80;fill-opacity:1;stroke:#ffffff;stroke-width:2.59044480000000020;stroke-linecap:butt;stroke-linejoin:miter;stroke-miterlimit:4;stroke-opacity:1;stroke-dasharray:none"
                             d="m 41.707317,94.073171 c 5.882438,-5.297338 13.843629,-1.786998 20.121951,-0.731708 -6.591132,1.912096 -13.395751,1.359895 -20.121951,0.731708 z"
                             id="path3809"
                             inkscape:connector-curvature="0" />
                          <path
                             sodipodi:nodetypes="ccc"
                             style="fill:#001f80;fill-opacity:1;stroke:#ffffff;stroke-width:2.59044480000000020;stroke-linecap:butt;stroke-linejoin:miter;stroke-miterlimit:4;stroke-opacity:1;stroke-dasharray:none"
                             d="m -13.902439,92.609756 c -3.364865,0.548538 -8.3402,0.513271 -14.634146,0 3.197623,-3.209533 13.568214,-1.910798 14.634146,0 z"
                             id="path3813"
                             inkscape:connector-curvature="0" />
                          <path
                             sodipodi:nodetypes="ccc"
                             style="fill:#001f80;fill-opacity:1;stroke:#ffffff;stroke-width:2.59044480000000020;stroke-linecap:butt;stroke-linejoin:miter;stroke-miterlimit:4;stroke-opacity:1;stroke-dasharray:none"
                             d="m -0.36585366,94.439024 c 0,0 -7.31707314,-2.195122 -5.85365854,-2.195122 4.0043543,0.534127 5.85365854,-2.151336 5.85365854,2.195122 z"
                             id="path3815"
                             inkscape:connector-curvature="0" />
                          <path
                             sodipodi:nodetypes="ccccc"
                             style="fill:#001f80;fill-opacity:1;stroke:#ffffff;stroke-width:2.59044480000000020;stroke-linecap:butt;stroke-linejoin:miter;stroke-miterlimit:4;stroke-opacity:1;stroke-dasharray:none"
                             d="m 23.04878,87.121951 c -5.252015,0.42908 -10.481941,0.389983 -15.7317068,0 l 1.0975609,-2.195122 c 5.9068569,-0.498593 10.5687019,-0.365853 16.4634149,-0.365853 1.196288,2.276163 0.173686,1.988703 -1.829269,2.560975 z"
                             id="path3817"
                             inkscape:connector-curvature="0" />
                          <path
                             sodipodi:nodetypes="ccc"
                             style="fill:#001f80;fill-opacity:1;stroke:#ffffff;stroke-width:2.59044480000000020;stroke-linecap:butt;stroke-linejoin:miter;stroke-miterlimit:4;stroke-opacity:1;stroke-dasharray:none"
                             d="M 5.4878049,96.634146 C 8.743493,90.153207 13.056196,92.757194 19.390244,92.97561 c 0.308597,7.96827 -15.5105203,7.9845 -13.9024391,3.658536 z"
                             id="path3819"
                             inkscape:connector-curvature="0" />
                          <path
                             style="fill:#001f80;fill-opacity:1;stroke:#ffffff;stroke-width:2.59044480000000020;stroke-linecap:butt;stroke-linejoin:miter;stroke-miterlimit:4;stroke-opacity:1;stroke-dasharray:none"
                             d="m 32.195122,94.439024 -8.780488,-1.829268 c 0,0 -0.731707,-1.463415 2.195122,-1.463415 2.926829,0 5.853659,0.365854 5.853659,0.365854 z"
                             id="path3821"
                             inkscape:connector-curvature="0" />
                          <path
                             sodipodi:nodetypes="ccccccc"
                             style="fill:#001f80;fill-opacity:1;stroke:#ffffff;stroke-width:2.59044480000000020;stroke-linecap:butt;stroke-linejoin:miter;stroke-miterlimit:4;stroke-opacity:1;stroke-dasharray:none"
                             d="m 16.463415,103.21951 5.121951,-1.09756 c 7.36545,-0.86563 11.773688,-0.34838 18.658536,1.46342 l -2.195122,0.7317 -6.585365,0 0,1.09756 c 10.095507,5.50533 -14.527509,-1.74092 -15,-2.19512 z"
                             id="path3823"
                             inkscape:connector-curvature="0" />
                          <path
                             sodipodi:nodetypes="cccc"
                             style="fill:#001f80;fill-opacity:1;stroke:#ffffff;stroke-width:2.59044480000000020;stroke-linecap:butt;stroke-linejoin:miter;stroke-miterlimit:4;stroke-opacity:1;stroke-dasharray:none"
                             d="m 48.658537,106.14634 c 2.275496,-3.12308 6.159008,-1.82927 10.609756,-1.82927 l 1.097561,1.09756 c -3.524919,2.03541 -7.846119,1.04941 -11.707317,0.73171 z"
                             id="path3825"
                             inkscape:connector-curvature="0" />
                          <path
                             sodipodi:nodetypes="cccc"
                             style="fill:#001f80;fill-opacity:1;stroke:#ffffff;stroke-width:2.59044480000000020;stroke-linecap:butt;stroke-linejoin:miter;stroke-miterlimit:4;stroke-opacity:1;stroke-dasharray:none"
                             d="m 77.926829,110.17073 c -3.292683,0 -8.780488,-1.46341 -8.780488,-1.46341 1.941384,-3.41259 8.086978,-1.64927 12.804879,-1.46342 z"
                             id="path3827"
                             inkscape:connector-curvature="0" />
                          <path
                             sodipodi:nodetypes="cscc"
                             style="fill:#001f80;fill-opacity:1;stroke:#ffffff;stroke-width:2.59044480000000020;stroke-linecap:butt;stroke-linejoin:miter;stroke-miterlimit:4;stroke-opacity:1;stroke-dasharray:none"
                             d="m 82.682927,99.560976 c 0,0 9.878049,-0.365854 11.707317,-0.365854 1.829268,0 2.195122,1.829268 2.195122,1.829268 -4.051076,-0.3746 -12.75603,4.92373 -13.902439,-1.463414 z"
                             id="path3829"
                             inkscape:connector-curvature="0" />
                          <path
                             sodipodi:nodetypes="ccc"
                             style="fill:#001f80;fill-opacity:1;stroke:#ffffff;stroke-width:2.59044480000000020;stroke-linecap:butt;stroke-linejoin:miter;stroke-miterlimit:4;stroke-opacity:1;stroke-dasharray:none"
                             d="m 107.19512,100.29268 c 4.03207,-1.557683 8.22013,-1.773229 12.43903,-2.195119 -4.80729,5.450449 -5.58841,3.544489 -12.43903,2.195119 z"
                             id="path3831"
                             inkscape:connector-curvature="0" />
                          <path
                             style="fill:#001f80;fill-opacity:1;stroke:#ffffff;stroke-width:2.59044480000000020;stroke-linecap:butt;stroke-linejoin:miter;stroke-miterlimit:4;stroke-opacity:1;stroke-dasharray:none"
                             d="m 132.80488,101.02439 -8.78049,-1.463414 c 0,0 -0.73171,-1.829269 1.82927,-1.829269 2.56097,0 9.14634,0 9.14634,0 z"
                             id="path3833"
                             inkscape:connector-curvature="0" />
                          <path
                             style="fill:#001f80;fill-opacity:1;stroke:#ffffff;stroke-width:2.59044480000000020;stroke-linecap:butt;stroke-linejoin:miter;stroke-miterlimit:4;stroke-opacity:1;stroke-dasharray:none"
                             d="m 130.97561,107.2439 -1.09756,-2.19512 5.4878,-1.46341 5.12195,0 6.95122,0.36585 3.65854,0 -11.34146,2.56098 -2.56098,0.36585 z"
                             id="path3835"
                             inkscape:connector-curvature="0" />
                        </g>
                      </g>
                    </g>
                  </g>
                </g>
              </g>
            </g>
          </g>
        </g>
      </g>
    </g>
  </g>
</svg>
